<svg xmlns="http://www.w3.org/2000/svg" width="35.002" height="35.112" viewBox="0 0 35.002 35.112">
  <g id="Group_434" data-name="Group 434" transform="translate(238.928 245.722) rotate(180)">
    <path id="Path_714" data-name="Path 714" d="M215.779,213.95c-4.2,2.035-6.974,6.316-8.236,10.812s-1.209,9.244-1.072,13.912c.047,1.582.26,3.442,1.636,4.226,1.536.875,3.417-.186,4.857-1.213,1.124-.8,2.354-1.783,2.458-3.16.129-1.695-1.5-2.961-3-3.754a2.484,2.484,0,0,0-1.486-.4,2.585,2.585,0,0,0-1.236.733c-.9.8-1.883,2.023-1.27,3.057.655,1.1,2.325.7,3.487.151" fill="none" stroke="#69f3d9" stroke-linecap="round" stroke-miterlimit="10" stroke-width="5"/>
    <path id="Path_715" data-name="Path 715" d="M235.589,213.95c-4.2,2.035-6.975,6.316-8.237,10.812s-1.208,9.244-1.071,13.912c.046,1.582.26,3.442,1.635,4.226,1.537.875,3.417-.186,4.857-1.213,1.124-.8,2.354-1.783,2.459-3.16.129-1.695-1.5-2.961-3-3.754a2.481,2.481,0,0,0-1.485-.4,2.583,2.583,0,0,0-1.237.733c-.9.8-1.883,2.023-1.27,3.057.655,1.1,2.326.7,3.487.151" fill="none" stroke="#69f3d9" stroke-linecap="round" stroke-miterlimit="10" stroke-width="5"/>
  </g>
</svg>
