<?xml version="1.0" encoding="utf-8"?>
<!-- Generator: Adobe Illustrator 27.2.0, SVG Export Plug-In . SVG Version: 6.00 Build 0)  -->
<svg version="1.1" id="Layer_1" xmlns="http://www.w3.org/2000/svg" xmlns:xlink="http://www.w3.org/1999/xlink" x="0px" y="0px"
	 viewBox="0 0 56.5 40" style="enable-background:new 0 0 56.5 40;" xml:space="preserve">
<style type="text/css">
	.st0{clip-path:url(#SVGID_00000160884569439066269630000013843252829007517587_);}
	.st1{fill:#69F3D9;}
</style>
<g>
	<defs>
		<rect id="SVGID_1_" width="56.5" height="40"/>
	</defs>
	<clipPath id="SVGID_00000175294552975725557510000002146996219437697450_">
		<use xlink:href="#SVGID_1_"  style="overflow:visible;"/>
	</clipPath>
	<g id="Group_451" style="clip-path:url(#SVGID_00000175294552975725557510000002146996219437697450_);">
		<path id="Path_741" class="st1" d="M54.7,36.5c-0.5,0.1-1,0.2-1.6,0.3c-0.2,0-0.4,0.1-0.7,0.1c0.3,0-0.1,0-0.2,0
			c-0.2,0-0.4,0-0.5,0.1c-1,0.1-2,0.2-3.1,0.2s-2,0-3.1-0.1c-0.5,0-1-0.1-1.5-0.1c-0.3,0-0.5-0.1-0.8-0.1c0.3,0-0.1,0-0.2,0
			l-0.4-0.1c-2.1-0.3-4.1-0.8-6.1-1.5c-0.5-0.2-0.9-0.3-1.4-0.5c-0.2-0.1-0.5-0.2-0.7-0.3c0.2,0.1,0,0,0,0c-0.2-0.1-0.3-0.1-0.5-0.2
			c-0.9-0.4-1.8-0.9-2.7-1.4c-0.8-0.5-1.7-1-2.5-1.5c-0.4-0.2-0.7-0.5-1.1-0.8c-0.2-0.1-0.3-0.2-0.5-0.4c-0.3-0.2,0.2,0.2-0.1-0.1
			c-0.1-0.1-0.3-0.2-0.4-0.3c-1.4-1.2-2.8-2.4-4-3.8c-0.3-0.4-0.6-0.7-1-1.1c-0.1-0.2-0.3-0.3-0.4-0.5c-0.1-0.1-0.2-0.2-0.2-0.3
			L21.1,24c0.1,0.1,0.1,0.1,0,0c-0.6-0.7-1.1-1.5-1.6-2.3c-1-1.6-1.9-3.2-2.6-4.9c0-0.1-0.1-0.2-0.1-0.3c-0.1-0.1-0.1-0.1,0,0
			l-0.1-0.2c-0.1-0.2-0.2-0.4-0.3-0.7c-0.2-0.5-0.4-1-0.5-1.5c-0.4-1.2-0.7-2.4-1-3.7c-0.3-1.3-0.5-2.5-0.7-3.8c0-0.1,0-0.2-0.1-0.4
			c0,0-0.1-0.6,0-0.4c0-0.3-0.1-0.6-0.1-0.9c-0.1-0.7-0.1-1.3-0.2-2c0-0.8-0.6-1.4-1.4-1.4c-0.8,0-1.4,0.6-1.4,1.4
			c0.3,4.7,1.3,9.3,2.9,13.6c1.5,3.8,3.6,7.2,6.1,10.3c5.3,6.4,12.6,10.7,20.8,12.3c4.9,1,9.9,1,14.8,0c0.7-0.2,1.2-1,1-1.7
			C56.2,36.8,55.5,36.4,54.7,36.5"/>
		<path id="Path_742" class="st1" d="M2.1,17c4.1-2.9,7.4-6.8,9.6-11.2c0.7-1.3,1.2-2.6,1.7-4l-2.6,0.3c3.3,5.2,7.7,9.7,12.9,13.1
			c1.4,0.9,2.9,1.8,4.4,2.5c0.7,0.4,1.5,0.2,1.9-0.5c0.4-0.7,0.2-1.5-0.5-1.9c-1.3-0.6-2.6-1.4-3.9-2.1c-0.6-0.4-1.3-0.8-1.9-1.3
			c-0.3-0.2-0.5-0.4-0.8-0.6c-0.1-0.1-0.3-0.2-0.4-0.3c-0.3-0.2,0.1,0.1-0.1-0.1l-0.2-0.2c-2.3-1.8-4.4-3.9-6.3-6.2
			c-0.1-0.2-0.3-0.3-0.4-0.5l-0.2-0.2c0,0-0.1-0.1-0.1-0.1c-0.3-0.3-0.5-0.7-0.7-1c-0.5-0.7-1-1.4-1.4-2.1c-0.4-0.7-1.3-0.9-2-0.4
			c-0.3,0.2-0.5,0.5-0.6,0.8c-0.2,0.6-0.4,1.1-0.6,1.6c0,0-0.1,0.2,0,0.1s0,0.1-0.1,0.1C10,2.9,9.9,3,9.9,3.2C9.8,3.4,9.6,3.7,9.5,4
			C9,5,8.4,6,7.8,7c-0.3,0.5-0.6,1-1,1.4C6.7,8.6,6.7,8.7,6.6,8.8L6.5,8.9c0,0-0.2,0.2-0.1,0.1c0.1-0.1-0.1,0.2-0.2,0.2
			C6.1,9.4,6,9.5,5.9,9.6c-0.7,0.9-1.5,1.8-2.4,2.6c-0.5,0.4-0.9,0.9-1.4,1.3c-0.2,0.2-0.5,0.4-0.7,0.6c0,0-0.2,0.2-0.1,0.1
			s-0.1,0.1-0.1,0.1c-0.2,0.1-0.3,0.2-0.5,0.3C0,15-0.2,15.8,0.2,16.5C0.6,17.1,1.4,17.4,2.1,17"/>
	</g>
</g>
</svg>
