<?xml version="1.0" encoding="utf-8"?>
<!-- Generator: Adobe Illustrator 25.2.3, SVG Export Plug-In . SVG Version: 6.00 Build 0)  -->
<svg version="1.1" id="Layer_1" xmlns="http://www.w3.org/2000/svg" xmlns:xlink="http://www.w3.org/1999/xlink" x="0px" y="0px"
	 viewBox="0 0 183.8 103.3" style="enable-background:new 0 0 183.8 103.3;" xml:space="preserve">
<style type="text/css">
	.st0{fill:#69F3D9;}
	.st1{fill:#FFFFFF;}
	.st2{fill:#708E41;}
	.st3{fill:#092D3F;}
	.st4{fill:none;}
	.st5{fill:#8AD0C8;}
</style>
<g id="Layer_4">
	<path class="st0" d="M79.1,64.5c-1.7,0.9-3.4,1.7-5.2,2.3c-4.1,0.8-9.1,0.8-11.8-3c-4.8,3.2-9.6,4.9-15.1,2.6
		c-2-0.8-2.1-3.2-4.8-2.2c-2.5,0.9-5,2.3-7.6,2.5s-3.4-1.4-5.7-1.8c-2.5-0.5-5.6,0.6-8,1.4c-4.4,1.4-9.1,1.4-13.5,0
		c-1.4-0.4-0.8-2.8,0.6-2.5c5.7,1.6,9.4,0.4,14.9-0.8c1.7-0.4,3.7-1.2,5.5-0.9c1.5,0.3,3.7,2.2,5.1,2.1c3.2-0.2,9.5-4.9,12.5-2.3
		c2.2,1.8,3.2,3.1,6.4,3c4.3-0.2,7.1-4.5,10.3-3.9c0.8,0.1,2.7,1.8,3.6,2.3c1.2,0.7,4.3,1.2,6.7,0.9c0.1,0.1,0.4,0,1-0.2
		c1.2-0.6,2.4-1.3,3.6-2.1c0.1,0.2,0.2,0.5,0.4,0.7c0.3,0.5,0.7,1,1.2,1.5l0,0C79,64.3,79,64.4,79.1,64.5z"/>
	<path class="st0" d="M176,63.8c-0.9,0-1.7,0.1-2.5,0.1h-0.1c-0.2,0-0.4,0-0.6,0c-1.3-0.4-2.6-0.9-3.7-1.6c-1.3-0.7-1.2-1.7-2.4-2
		c-1.4-0.5-4,1.2-4.7,1.6c-0.3,0.2-0.6,0.3-0.9,0.5c-1.2,1.1-2.7,1.8-4.4,2c-1.3,0.1-2.5-0.3-3.5-1.1c-0.9-0.8-1.8-1.7-2.6-2.6
		c-1.4-1.5-3.4-1.1-5.4-0.1c0,0,0,0-0.1,0l-0.6,0.3c-2.2,1.1-4.4,2.5-5.9,2.6c-0.8,0.1-2-0.9-2.9-1.7l-0.4,0.1l-1.8,0.5l-0.7,0.2
		c1.1,1.9,2.6,3.9,6.1,3.4c2.5-0.3,5-1.8,7.4-2.9c2.9-1.2,3.4,1.2,5,2.4l0.3,0.2c3.2,1.8,7.1,1.7,10.2-0.2c1.4-0.5,2.7-1.3,3.8-2.4
		c2.5,2.7,5.5,3.5,9,3.4c0.8,0,2.6,0.1,2.7-0.7S177,63.8,176,63.8z M143.1,62.1L143.1,62.1l0.2,0L143.1,62.1z"/>
</g>
<g id="Layer_1_1_">
	<path class="st1" d="M6.7,98.2V70.5h4.4c1.2-0.1,2.3,0.3,3.2,1.1c0.7,1.1,1.1,2.3,0.9,3.6v5.5c0,1.7-0.6,2.7-1.7,3.1
		c0.6,0.1,1.1,0.4,1.4,0.9c0.5,0.6,0.7,1.4,0.6,2.2v6.6c0.1,1.3-0.3,2.6-1.1,3.6c-0.9,0.8-2.1,1.2-3.3,1.1L6.7,98.2z M12.8,75.2
		c0.1-0.6-0.1-1.2-0.4-1.6c-0.3-0.4-0.8-0.5-1.3-0.5H9.2v9.8h1.9c0.5,0,0.9-0.1,1.3-0.4c0.3-0.4,0.4-0.9,0.4-1.4V75.2z M12.9,87.3
		c0.1-0.6-0.1-1.2-0.4-1.7c-0.4-0.4-0.9-0.6-1.4-0.5H9.2v10.6h1.9c1.2,0,1.8-0.7,1.8-2.2L12.9,87.3z"/>
	<path class="st1" d="M18.2,74.9c0-3.1,1.4-4.7,4.3-4.7s4.4,1.6,4.4,4.7v18.8c0,3.1-1.5,4.7-4.4,4.7s-4.4-1.6-4.3-4.7L18.2,74.9z
		 M24.4,74.9c0-1.4-0.6-2.1-1.8-2.1s-1.8,0.7-1.8,2.1v18.8c0,1.5,0.6,2.2,1.8,2.2s1.8-0.7,1.8-2.2V74.9z"/>
	<path class="st1" d="M36.1,70.5h2.5v23.2c0,3.1-1.4,4.7-4.3,4.7S30,96.9,30,93.8V70.5h2.6v23.2c0,1.5,0.6,2.2,1.8,2.2
		s1.8-0.7,1.8-2.2L36.1,70.5z"/>
	<path class="st1" d="M48.8,98.2L44,78c0,2.1,0,4.2,0,6.1v14.1h-2.2V70.5h3.1l4.2,20.3c0-1.9,0-3.8,0-5.6V70.5h2.2v27.7H48.8z"/>
	<path class="st1" d="M54.6,98.2V70.5h4.3c1.2-0.1,2.4,0.4,3.3,1.3c0.8,1,1.2,2.2,1.1,3.5v18.2c0,3.1-1.5,4.7-4.4,4.7L54.6,98.2z
		 M60.7,75.3c0-0.6-0.1-1.1-0.5-1.6c-0.3-0.4-0.8-0.6-1.4-0.6h-1.8v22.5h1.8c1.2,0,1.8-0.7,1.8-2.2V75.3z"/>
	<path class="st1" d="M73,98.2l-0.6-4.6h-4.1l-0.6,4.6h-2.5L69,70.5h3l3.6,27.7H73z M72.1,91.2c-0.3-2.4-0.6-4.7-0.9-7
		s-0.6-4.7-0.8-7.1c-0.3,2.4-0.6,4.8-0.9,7.1s-0.6,4.7-0.9,7H72.1z"/>
	<path class="st1" d="M84.6,98.2c-0.3-2.2-0.6-4.3-0.9-6.3c-0.3-2-0.7-4.1-1-6.2h-0.3h-1.7v12.6h-2.5V70.5h4.2
		c2.3-0.4,4.5,1.2,4.8,3.5c0.1,0.5,0.1,1,0,1.5V81c0,2-0.7,3.4-2,4.1c0.4,2.2,0.9,4.4,1.2,6.6s0.7,4.3,1.1,6.5L84.6,98.2z
		 M84.5,75.9c0.1-0.7-0.1-1.5-0.4-2.1c-0.5-0.5-1.1-0.7-1.8-0.6h-1.7v10.2h1.7c0.6,0.1,1.2-0.1,1.7-0.5c0.4-0.5,0.6-1.1,0.5-1.7
		L84.5,75.9z"/>
	<path class="st1" d="M92.7,98.2V85.8l-3.9-15.2h2.7c0.2,0.9,0.5,1.9,0.7,3s0.5,2.2,0.8,3.3s0.5,2.1,0.7,3s0.3,1.6,0.4,2.1
		c0.1-0.5,0.2-1.2,0.4-2.1s0.4-1.9,0.7-3s0.5-2.2,0.8-3.3s0.5-2.1,0.8-3h2.5l-4,15.2v12.4H92.7z"/>
	<path class="st1" d="M116.6,98.2c-0.1-1-0.2-2.1-0.4-3.4s-0.3-2.6-0.4-4s-0.3-2.8-0.4-4.2s-0.2-2.7-0.3-3.9s-0.2-2.2-0.3-3.1
		s-0.1-1.5-0.2-1.9c0,0.4-0.1,1-0.2,1.9s-0.2,1.9-0.3,3.1l-0.4,3.9c-0.1,1.4-0.3,2.8-0.4,4.2s-0.3,2.7-0.5,4s-0.3,2.4-0.4,3.4h-3.1
		l-3.1-27.7h2.7c0.1,1.1,0.3,2.4,0.4,3.8s0.3,2.8,0.4,4.3s0.3,2.9,0.4,4.3s0.2,2.8,0.4,4s0.2,2.3,0.3,3.2s0.2,1.6,0.2,2.1
		c0-0.4,0.1-1.1,0.2-2.1s0.2-2,0.3-3.2s0.3-2.5,0.4-4s0.3-2.9,0.5-4.3s0.3-2.9,0.5-4.3s0.3-2.7,0.4-3.8h2.5l2.1,21.7
		c0.1-0.4,0.1-1.1,0.2-2.1s0.2-2,0.3-3.2s0.3-2.5,0.4-4s0.3-2.9,0.5-4.3s0.3-2.9,0.5-4.3s0.3-2.7,0.4-3.8h2.7l-3.5,27.7L116.6,98.2z
		"/>
	<path class="st1" d="M131.7,98.2l-0.6-4.6H127l-0.6,4.6h-2.5l3.8-27.7h3l3.6,27.7H131.7z M130.8,91.2c-0.3-2.4-0.6-4.7-0.9-7
		s-0.6-4.7-0.8-7.1c-0.3,2.4-0.6,4.8-0.9,7.1c-0.3,2.3-0.6,4.7-0.9,7H130.8z"/>
	<path class="st1" d="M137.9,98.2V73.1h-3.1v-2.6h8.7v2.6h-3.1v25.1H137.9z"/>
	<path class="st1" d="M145.9,98.2V70.5h7.3v2.6h-4.8v9.7h3.4v2.6h-3.4v10.3h4.9v2.5L145.9,98.2z"/>
	<path class="st1" d="M162.7,98.2c-0.3-2.2-0.6-4.3-0.9-6.3c-0.3-2-0.7-4.1-1-6.2h-0.3h-1.7v12.6h-2.6V70.5h4.2
		c2.3-0.4,4.5,1.2,4.8,3.5c0.1,0.5,0.1,1,0,1.5V81c0,2-0.7,3.4-2.1,4.1c0.4,2.2,0.9,4.4,1.2,6.6s0.7,4.3,1.1,6.5L162.7,98.2z
		 M162.6,75.9c0.1-0.7-0.1-1.5-0.4-2.1c-0.5-0.5-1.1-0.7-1.8-0.6h-1.6v10.2h1.7c0.6,0.1,1.2-0.1,1.7-0.6c0.4-0.5,0.5-1.1,0.5-1.7
		V75.9z"/>
	<path class="st1" d="M173.5,90c0-0.3,0-0.7,0-1c0-0.2-0.1-0.5-0.1-0.7c-0.1-0.2-0.2-0.4-0.3-0.6l-0.4-0.6c-0.3-0.4-0.7-0.8-1-1.1
		l-1-1c-0.4-0.3-0.7-0.7-1.1-1.1s-0.8-0.8-1.2-1.3c-0.4-0.4-0.7-1-0.8-1.6c-0.1-0.7-0.1-1.3-0.1-2v-4.2c0-3,1.4-4.6,4.3-4.6
		c1.2-0.1,2.3,0.3,3.1,1.1c0.7,1,1,2.2,0.9,3.4v5h-2.4v-4.7c0-0.6-0.1-1.2-0.4-1.7c-0.3-0.5-0.8-0.7-1.4-0.6c-1.2,0-1.8,0.7-1.8,2
		v4.1c0,0.4,0,0.9,0.1,1.3c0.1,0.3,0.3,0.6,0.5,0.9c0.6,0.8,1.3,1.6,2.1,2.2c0.8,0.7,1.5,1.5,2.1,2.2c0.2,0.3,0.4,0.6,0.6,0.9
		c0.2,0.3,0.3,0.6,0.4,0.9c0.1,0.4,0.2,0.8,0.2,1.2c0,0.4,0.1,0.9,0.1,1.4v4c0.1,1.2-0.3,2.4-1,3.4c-0.9,0.9-2.1,1.3-3.3,1.2
		c-1.2,0.1-2.4-0.3-3.3-1.2c-0.7-1-1.1-2.2-1-3.4v-5.9h2.4v5.5c0,0.6,0.1,1.2,0.4,1.7c0.3,0.5,0.8,0.7,1.4,0.7c0.5,0,1-0.1,1.4-0.5
		c0.3-0.4,0.5-1,0.4-1.5L173.5,90z"/>
	<path class="st2" d="M143.2,62l-0.2,0.1l0,0L143.2,62z"/>
	<path class="st3" d="M80.4,63.3L80.4,63.3h-0.2H80.4z"/>
	<path class="st3" d="M80.5,63.3L80.5,63.3z"/>
	<path class="st0" d="M174.8,25.8c-0.1-0.8-0.9-1.1-1.7-1.5c-2.4-1.4-4.6-3.1-6.6-5.1c-1.5-1.5-2.9-3.2-3.9-5
		c-1.2-2.4-1.7-3.1-2.7-3.2c-0.9,0.1-1.7,0.5-2.4,1c-2.5,2-5.3,3.6-8.2,5l0,0c-1,0.5-2.1,1-3.1,1.5l0,0c-0.5,0.2-1.1,0.5-1.6,0.7
		l-0.1,0c-0.9,0.3-1.7,0.7-2.6,1c-6.1,2.2-12.4,3.9-18.8,5.1c-3.9,0.8-7.2,1.2-9.1,1.5c-8-1.3-14.8-2.9-23.3-4.8
		c-5.4-1.2-11.6-4.6-14.7-3.3c-1.2,0.5-0.1,2.7-0.1,4.1c0-0.1,0.1-0.2,0.2-0.3c0-0.1,0.1-0.1,0.1-0.2c0-0.1,0.1-0.1,0.2-0.2
		c0.1-0.1,0.2-0.1,0.3-0.2c0.2-0.1,0.4-0.2,0.6-0.2h0.2c0.5,0,1.1,0,1.6,0.1h0c0.7,0.2,1.5,0.4,2.2,0.7l0,0l0.2,0.1h0.1
		c1.7,0.7,3.4,1.6,5,2.5c10.5,5.4,28.6,4.7,28.6,4.7c2.9,0.5,5.6,1,8.1,1.4c6.8,1.1,13.8,1.7,20.7,1.8c4.3,0,8.2-0.2,12.8-0.5
		c2.9-0.1,5.9-0.5,8.7-1.1c0.6-0.1,1.2-0.3,1.7-0.4c2.6-0.6,5.1-1.6,7.4-3l0.2-0.2l0.4-0.6C174.6,26.9,174.8,26.1,174.8,25.8z
		 M141.2,22.3c0.9-0.3,1.7-0.6,2.5-0.9l1.2-0.4c1.1-0.4,2.1-0.8,3-1.2l1.5-0.6c2.4-0.9,4.6-2.1,6.7-3.5L160,16
		c0.8,1.2,1.8,2.2,2.9,3.1c1.7,1.5,3.8,3.2,5.5,4.5c0.7,0.5,1.4,1.1,2,1.7h-39.8C134.7,24.3,138.2,23.3,141.2,22.3z M169.8,27.6
		c-1,0.5-2,0.9-3.1,1.1c-1.4,0.4-2.8,0.6-4.3,0.8s-3.1,0.4-4.6,0.6c-1.4,0.1-2.7,0.3-4.1,0.4c-0.9,0.1-1.8,0.1-2.7,0.2
		c-0.2,0-0.4,0-0.7,0c-2.7,0-5.3-0.1-7.9-0.2l-1.2,0l-1,0c-0.5,0-1.1,0-1.6-0.1c-5.3-0.3-10.5-0.9-15.7-1.7
		c-1.3-0.2-2.5-0.4-3.7-0.6c1.3-0.2,2.5-0.5,3.7-0.8l0.7-0.1h46.9C170.4,27.2,170.1,27.4,169.8,27.6z"/>
	<path class="st1" d="M155.5,6.5c-0.3-0.4-0.7-0.8-1.1-1l-0.1-0.1l-0.7-0.3L153,4.9c-0.3-0.1-0.7-0.1-1-0.1c-0.2,0-0.5,0.1-0.6,0.3
		c-0.3,0.4-0.4,1-0.4,1.5c0,0.6,0.1,1.2,0.1,1.8c0,0.1,0,0.2-0.1,0.2c-1.7,3.4-3.3,6.6-4.9,9.8c-0.1,0.2-0.2,0.5-0.3,0.7
		c-0.1,0.1-0.1,0.3-0.2,0.4c-0.2,0.5-0.4,0.9-0.7,1.4c-0.7,1.4-1.4,2.9-2.2,4.4h2.4c1-1.9,1.9-3.8,2.8-5.6c0.1-0.2,0.2-0.4,0.3-0.6
		l0.4-0.8c0.2-0.5,0.4-0.9,0.7-1.4l0,0c1.2-2.4,2.4-4.8,3.7-7.4c0-0.1,0.1-0.2,0.2-0.2c0.5-0.3,0.9-0.6,1.4-0.9
		c0.3-0.2,0.6-0.5,0.8-0.8c0.1-0.2,0.2-0.3,0.3-0.5C155.8,7,155.7,6.7,155.5,6.5z"/>
	<path class="st1" d="M144.5,27c-0.4,0.7-1.4,2.4-2,3.5l-1.2,0l-1,0c-0.5,0-1.1,0-1.6-0.1c0.3-1,0.7-2.4,1-3.3H144.5z"/>
	<path class="st1" d="M147.9,10.5c-0.4-0.4-0.8-0.7-1.3-0.8h-0.1l-0.7-0.2l-0.7-0.1c-0.4,0-0.7,0-1.1,0.1c-0.2,0-0.4,0.2-0.5,0.4
		c-0.2,0.5-0.3,1-0.1,1.6c0.1,0.6,0.3,1.1,0.4,1.7c0,0.1,0,0.2,0,0.2c-0.6,2-1.1,3.9-1.7,5.7c-0.1,0.4-0.2,0.7-0.3,1l-0.2,0.8
		c-0.1,0.4-0.2,0.8-0.4,1.3l-0.9,3.1h2.2c0.4-1.4,0.8-2.7,1.2-4c0.1-0.4,0.3-0.9,0.4-1.3s0.2-0.6,0.3-0.9c0,0,0,0,0,0
		c0.5-1.6,1-3.3,1.6-5.1c0-0.1,0.1-0.2,0.1-0.2c0.4-0.4,0.8-0.8,1.2-1.1c0.3-0.3,0.5-0.6,0.6-0.9c0.1-0.2,0.1-0.4,0.2-0.6
		C148.2,10.9,148.1,10.7,147.9,10.5z"/>
	<path class="st4" d="M76,64.1l-0.2-1C75.9,63.4,75.9,63.8,76,64.1"/>
	<path class="st2" d="M143.2,62l-0.2,0.1l0,0L143.2,62z"/>
	<path class="st1" d="M16.5,47.2c0-0.6,0-1.1,0-1.5c0-0.3-0.1-0.7-0.2-1c-0.1-0.3-0.2-0.6-0.4-0.8c-0.2-0.2-0.4-0.5-0.6-0.8
		c-0.5-0.6-1-1.1-1.4-1.6L12.4,40c-0.5-0.5-1-1-1.6-1.6s-1.1-1.2-1.7-1.9c-0.6-0.7-1-1.5-1.1-2.3c-0.1-1-0.2-1.9-0.2-2.9v-6
		c0-4.4,2.1-6.6,6.2-6.6c2.2,0,3.8,0.5,4.7,1.6c1,1.5,1.5,3.2,1.4,5v7.3h-3.5v-6.8c0-0.8-0.1-1.7-0.5-2.4c-0.4-0.7-1.2-1-2-0.9
		c-1.7,0-2.6,1-2.6,2.9v5.9c0,0.6,0,1.2,0.2,1.8c0.2,0.5,0.4,0.9,0.7,1.3c0.9,1.2,1.9,2.2,3,3.2c1.1,1,2.1,2.1,3.1,3.2
		c0.3,0.4,0.6,0.8,0.9,1.2c0.2,0.4,0.4,0.9,0.5,1.4c0.1,0.5,0.2,1.1,0.3,1.7c0,0.6,0.1,1.3,0.1,2.1v5.7c0.1,1.7-0.4,3.5-1.4,4.9
		c-1,1.1-2.5,1.7-4.8,1.7s-3.8-0.6-4.7-1.7c-1.1-1.4-1.6-3.1-1.5-4.9v-8.5h3.5v7.9c0,0.9,0.2,1.7,0.6,2.5c0.4,0.7,1.2,1.1,2,1
		c0.7,0.1,1.5-0.2,2-0.8c0.5-0.6,0.7-1.4,0.6-2.2L16.5,47.2z"/>
	<path class="st1" d="M33.4,59l-0.9-6.7h-6L25.7,59h-3.6l5.5-39.8h4.3L37.1,59H33.4z M32.1,48.9c-0.4-3.4-0.8-6.8-1.3-10.1
		c-0.4-3.3-0.8-6.8-1.2-10.3c-0.4,3.5-0.8,7-1.3,10.3s-0.9,6.7-1.3,10.1H32.1z"/>
	<path class="st1" d="M42.6,59l-4.9-39.8h3.8c0.2,1.7,0.4,3.5,0.7,5.6c0.2,2.1,0.5,4.3,0.7,6.6s0.5,4.5,0.8,6.8s0.5,4.4,0.7,6.3
		s0.4,3.6,0.5,5.1s0.2,2.5,0.3,3.1c0.1-0.6,0.2-1.7,0.3-3.1s0.3-3.1,0.5-5s0.5-4,0.7-6.3s0.5-4.5,0.8-6.8s0.5-4.5,0.8-6.6
		s0.5-4,0.7-5.6h3.7L47.6,59H42.6z"/>
	<path class="st1" d="M55.8,59V19.1h10.5v3.7h-6.9v14h4.8v3.7h-4.8v14.8h7.1V59H55.8z"/>
	<path class="st5" d="M143.9,60.2L143.9,60.2l-0.2-0.1l0,0L143.9,60.2z"/>
	<path class="st1" d="M80.4,63.3L80.4,63.3h-0.2H80.4L80.4,63.3z M93.1,47.4c0.9-0.9,2.5-3.5,2.5-4.4C94.2,44.8,92.8,46.4,93.1,47.4
		z M93.7,49.4c-3.6,5.3-4.1,5.3-5.2,7.8c0,0.6,0,1.2,0,1.5c0.2,2.1,1,2.8,2.4,2.7c1.7-0.3,3.2-1,4.6-2c0.2-0.2,0.5-0.3,0.8-0.3
		c0.5-3.7,2.7-8.1,4.7-11.8L93.7,49.4z M125.2,47.9c-1.2,0.1-4.3,3.4-4.7,6.5c0.4-0.3,5.2-4.2,5.1-5.9
		C125.6,48,125.4,47.8,125.2,47.9L125.2,47.9z M80.4,63.3L80.4,63.3h-0.2H80.4L80.4,63.3z M93.1,47.4c0.9-0.9,2.5-3.5,2.5-4.4
		C94.2,44.8,92.8,46.4,93.1,47.4z M93.7,49.4c-3.6,5.3-4.1,5.3-5.2,7.8c0,0.6,0,1.2,0,1.5c0.2,2.1,1,2.8,2.4,2.7
		c1.7-0.3,3.2-1,4.6-2c0.2-0.2,0.5-0.3,0.8-0.3c0.5-3.7,2.7-8.1,4.7-11.8L93.7,49.4z M125.2,47.9c-1.2,0.1-4.3,3.4-4.7,6.5
		c0.4-0.3,5.2-4.2,5.1-5.9C125.6,48,125.4,47.8,125.2,47.9L125.2,47.9z M175.7,33.1c-0.1-2-0.3-3.9-0.5-5.2
		c-0.2-1.1-0.4-2.1-0.4-2.1s-2,2.2-7.7,3.8c-1,0.3-2,0.5-3.2,0.8c-1.4,0.3-3.1,0.6-4.9,0.8c-0.3,0-0.7,0.1-1.1,0.1h-0.1
		c-6.1,0.5-12.2,0.6-18.3,0.4c-3.3-0.1-6.2-0.3-9.2-0.6h-0.1c-2.4-0.2-4.7-0.5-7.1-0.8c-4.4-0.6-9-1.4-14.5-2.3
		c-6.9-1.1-16.2-2.9-27.2-5.3l-0.2-0.1l0,0l-1.1-0.3L79,21.9l0,0c-0.5-0.1-1.1-0.2-1.6-0.1h-0.2c-0.2,0-0.4,0.1-0.6,0.2
		c-0.1,0-0.2,0.1-0.3,0.2c-0.1,0-0.1,0.1-0.2,0.2c-0.1,0.1-0.1,0.1-0.1,0.2c-0.8,5.5-0.5,9.9-0.5,19.9s0.1,16.1,1.8,19.7
		c1.8-1.2,3.5-2.3,3.6-2.4c2.2-1.2,2.6-1.4,4.3-2.5c0.2-0.1,0.4-0.3,0.6-0.4l0.4-0.3c0.1-1.2,1.9-4.4,2.8-5.9
		c-2.2,0.4-4.2,1-5.7,1.1s-2.2-0.2-2.1-1.2c0.1-1.6,0.8-1,3.8-1.3c1.6-0.1,3.2-0.4,4.7-0.8c1.1-2.3,3.3-6.1,4.9-7.5
		c0.6-0.8,1.5-1.3,2.5-1.6c0.6-0.1,0.9,0.5,0.8,2.1c-0.3,1.8-2.7,4.9-3.3,6.2c2.2-0.3,4-0.7,6.9-1.3c1-1.7,1.9-3.5,2.7-5.3
		c0.3-0.7,2.7-4.1,3.6-4.2c0.4,0,0.7,0.6,0.2,2.5c-0.2,0.9-1.2,2.7-3,6.2h0.1v0.4l-0.4,0.1c-1.3,2.4-3,5.6-5.1,9.8
		c-0.6,1.1-1.4,4.8,0.9,2.5s4.3-4.9,6.6-7.2c0.8-0.9,1.3-1.3,1.8-1.3c0.7-0.1,1,1,1.1,2.5c0.2,2.3-0.1,5.2,0,6.5
		c0.1,1.1,0.4,0.8,1.5,0.7c1.4-0.3,2.6-0.8,3.8-1.5c0.2-0.3,0.5-0.5,0.8-0.7c1-0.7,1.4-1,2.3-1.7c-0.7-2.2,0.5-4.6,2.2-6.7
		c1.3-1.6,3.6-3.3,5.2-3.4c1-0.1,1.7,0.5,1.8,2.2c0,4.3-5.1,7.1-6.5,8.3c0.9,1.7,2.6,2.6,4.5,2.5c1.9-0.3,3.7-1.1,5.3-2.2l0.3-0.2
		c0.2-0.7,1-1.1,1.7-0.9c0.5,0.2,0.9,0.7,0.9,1.2c0.1,1.4,0.5,2.8,1.1,4l0,0c0,0,0.1,0,0.1,0.1c0,0,0.4,0.4,0.9,0.9
		c11.1-3,23.8-6.5,25-6.9l0.3-0.1c7.6-2.9,14.1-8.7,14.7-12.3C176,39.3,176,36.2,175.7,33.1L175.7,33.1z M132.7,62.1L132.7,62.1
		c-0.9-1-1.2-2.7-1.5-3.9c-0.2,0.1-0.3,0.2-0.5,0.3c-1.7,1.1-3.7,1.8-5.7,2c-2.5,0.3-4.9-0.9-6.2-3c-0.3,0.2-0.6,0.4-0.9,0.7
		c-0.5,0.6-1.2,1.1-1.8,1.5c-1.4,1-3.1,1.6-4.8,1.9c-1.8,0.1-3.5-0.4-3.7-3.2c0-0.6,0-1.4,0-2.2c0.1-2.9-1.1-1.1-2.2,0.2
		c-1.8,2.5-4.4,6.1-6.7,6.2c-1.2,0-2.2-0.8-2.3-2c-0.3,0.3-0.6,0.5-1,0.7c-1.4,1-3,1.6-4.7,1.8c-2.1,0.2-5,0.2-5.5-2.4
		c-0.6,0.5-1.2,0.9-1.8,1.3l0,0c-1.5,0.6-3,1.3-4.4,2.2l0,0c0.1,0.1,0.1,0.1,0.2,0.2c10.2,9.3,40.2,1.2,40.2,1.2
		c1.8-0.3,7.2-1.7,13.6-3.4C132.8,62.2,132.8,62.2,132.7,62.1L132.7,62.1z M125.2,47.8c-1.2,0.1-4.3,3.4-4.7,6.5
		c0.4-0.3,5.2-4.2,5.1-5.9C125.6,48,125.4,47.8,125.2,47.8L125.2,47.8z M93.7,49.4c-3.6,5.3-4.1,5.3-5.2,7.8c0,0.6,0,1.2,0,1.5
		c0.2,2.1,1,2.8,2.4,2.7c1.7-0.3,3.2-1,4.6-2c0.2-0.2,0.5-0.3,0.8-0.3c0.5-3.7,2.7-8.1,4.7-11.8L93.7,49.4z M93.1,47.4
		c0.9-0.9,2.5-3.5,2.5-4.4C94.2,44.8,92.8,46.4,93.1,47.4L93.1,47.4z M80.4,63.3L80.4,63.3h-0.2H80.4L80.4,63.3z M125.2,47.9
		c-1.2,0.1-4.3,3.4-4.7,6.5c0.4-0.3,5.2-4.2,5.1-5.9C125.6,48,125.4,47.8,125.2,47.9z M93.7,49.4c-3.6,5.3-4.1,5.3-5.2,7.8
		c0,0.6,0,1.2,0,1.5c0.2,2.1,1,2.8,2.4,2.7c1.7-0.3,3.2-1,4.6-2c0.2-0.2,0.5-0.3,0.8-0.3c0.5-3.7,2.7-8.1,4.7-11.8L93.7,49.4z
		 M93.1,47.4c0.9-0.9,2.5-3.5,2.5-4.4C94.2,44.8,92.8,46.4,93.1,47.4L93.1,47.4z M80.4,63.3L80.4,63.3h-0.2H80.4L80.4,63.3z"/>
	<path class="st5" d="M80.9,65.3L80.9,65.3L80.9,65.3L80.9,65.3C80.9,65.3,80.9,65.3,80.9,65.3z"/>
	<path class="st5" d="M140.7,60.8L140.7,60.8L140.7,60.8L140.7,60.8L140.7,60.8z"/>
	<path class="st5" d="M80.5,63.3L80.5,63.3h-0.3H80.5L80.5,63.3z"/>
	<path class="st5" d="M144.6,60.2l-0.7,0.3l0,0C144.2,60.4,144.3,60.3,144.6,60.2z"/>
	<path class="st5" d="M175,63.8c-0.2,0-0.5,0-0.7,0C174.5,63.8,174.8,63.8,175,63.8z"/>
	<path class="st1" d="M80.5,63.3L80.5,63.3h-0.3H80.5L80.5,63.3z M95.6,43c0,0.9-1.6,3.4-2.5,4.4C92.8,46.4,94.2,44.8,95.6,43z
		 M96.3,59.1c-0.3,0.1-0.6,0.2-0.8,0.3c-1.4,1-2.9,1.7-4.6,2c-1.4,0.1-2.2-0.6-2.4-2.7c0-0.4,0-0.9,0-1.5c1.1-2.5,1.6-2.5,5.2-7.8
		l7.3-2.1C99.1,51,96.9,55.5,96.3,59.1z M125.2,47.8c0.2,0,0.4,0.2,0.4,0.6c0.1,1.7-4.7,5.6-5.1,5.9C120.9,51.2,123.9,48,125.2,47.8
		z"/>
	<path class="st5" d="M143.2,62l-0.2,0.1l0,0L143.2,62z"/>
</g>
</svg>
